<?xml version="1.0" encoding="UTF-8"?>
<!DOCTYPE svg PUBLIC "-//W3C//DTD SVG 1.1//EN" "http://www.w3.org/Graphics/SVG/1.1/DTD/svg11.dtd">
<!-- Creator: CorelDRAW X7 -->
<svg xmlns="http://www.w3.org/2000/svg" xml:space="preserve" width="470px" height="470px" version="1.1" style="shape-rendering:geometricPrecision; text-rendering:geometricPrecision; image-rendering:optimizeQuality; fill-rule:evenodd; clip-rule:evenodd"
viewBox="0 0 470 470"
 xmlns:xlink="http://www.w3.org/1999/xlink">
 <defs>
  <style type="text/css">
   <![CDATA[
    .str0 {stroke:#3F7699;stroke-width:0.355513}
    .fil0 {fill:#3F7699}
    .fil1 {fill:#E6E6E6}
   ]]>
  </style>
 </defs>
 <g id="Слой_x0020_1">
  <metadata id="CorelCorpID_0Corel-Layer"/>
  <path class="fil0 str0" d="M1 1l312 0c84,0 156,72 156,156l0 153c0,87 -72,159 -159,159l-34 0c-153,0 -275,-125 -275,-275l0 -193 0 0 0 0z"/>
  <path class="fil1" d="M107 310l90 -138 44 38 -25 25 13 12 25 -25 -13 -12 35 -38 -13 -9 38 -37 34 31 -34 37 -13 -9 -34 37 37 35 -128 106c0,0 -25,16 -50,-6 -22,-22 -6,-47 -6,-47l0 0 0 0zm203 -197l28 -28 16 -22c9,-9 25,-9 34,0l0 0c13,9 13,25 3,34l-18 19 -25 28 -38 -31 0 0z"/>
 </g>
</svg>
